<?xml version="1.0" encoding="UTF-8"?>
<svg version="1.1" xmlns="http://www.w3.org/2000/svg" width="1200" height="1200">
<path d="M0 0 C396 0 792 0 1200 0 C1200 396 1200 792 1200 1200 C804 1200 408 1200 0 1200 C0 804 0 408 0 0 Z " fill="#2C1FF1" transform="translate(0,0)"/>
<path d="M0 0 C1.69613195 -0.00135447 3.39226351 -0.0033014 5.08839417 -0.00579834 C8.61015591 -0.0087138 12.13181486 -0.00456993 15.65356445 0.00488281 C20.10553122 0.01626788 24.55725871 0.00951412 29.00921726 -0.00199413 C93.45251453 -0.1437497 93.45251453 -0.1437497 109.37890625 14.578125 C123.20628499 29.55512415 120.56640625 56.03344041 120.56640625 74.265625 C102.08640625 74.265625 83.60640625 74.265625 64.56640625 74.265625 C64.23640625 69.645625 63.90640625 65.025625 63.56640625 60.265625 C62.21549354 54.03514305 62.21549354 54.03514305 58.44140625 49.328125 C39.91935382 42.48301867 16.58208272 44.09760876 -2.74609375 46.015625 C-3.44943848 46.0772583 -4.1527832 46.1388916 -4.87744141 46.20239258 C-9.62260745 46.76528921 -12.74531354 48.25250653 -16.43359375 51.265625 C-18.42932453 57.25281733 -18.54655769 64.64029232 -16.05859375 70.515625 C-10.60357781 79.67023652 0.37993609 84.77277622 9.33203125 89.96582031 C12.59787746 91.86566354 15.84697086 93.79352734 19.09790039 95.71875 C21.88668785 97.36973221 24.67753992 99.01717978 27.46875 100.6640625 C31.77595794 103.20669321 36.08044999 105.75386836 40.3828125 108.3046875 C40.95798111 108.64569489 41.53314972 108.98670227 42.12574768 109.33804321 C44.46386804 110.72439578 46.80191316 112.11087503 49.13980103 113.49761963 C55.10922597 117.03824111 61.08146822 120.5732865 67.07397461 124.07470703 C86.25675867 135.29075104 105.17457272 146.96976308 124.04541016 158.70068359 C126.6476735 160.31607271 129.25305967 161.92631374 131.859375 163.53515625 C141.21832418 169.3141234 150.55856591 175.11809131 159.82470703 181.04516602 C165.98702222 184.96530458 172.24035574 188.57542887 178.56640625 192.265625 C178.56640625 129.235625 178.56640625 66.205625 178.56640625 1.265625 C217.39296875 1.20375 217.39296875 1.20375 257.00390625 1.140625 C269.2231311 1.11331299 269.2231311 1.11331299 281.68920898 1.08544922 C291.7052002 1.07641602 291.7052002 1.07641602 296.40736389 1.07473755 C299.6624784 1.07288869 302.9175264 1.06545195 306.17262268 1.05447388 C310.34554647 1.04059032 314.5183758 1.03667277 318.69132054 1.03948045 C320.20975626 1.03889476 321.72819585 1.03502794 323.24661148 1.02719474 C346.37569642 0.91357619 374.21220863 2.26908167 392.38671875 18.08984375 C405.26437707 30.94442383 408.71609676 49.30767091 408.86994934 66.9309845 C408.86858223 68.63770576 408.86858223 68.63770576 408.8671875 70.37890625 C408.87147263 71.59152634 408.87575775 72.80414642 408.88017273 74.05351257 C408.8858793 76.60231913 408.88644365 79.15114196 408.88208008 81.69995117 C408.8789232 85.5574173 408.90241676 89.41411284 408.92773438 93.27148438 C408.95934695 105.58873927 408.95004363 117.35156454 405.56640625 129.265625 C405.25574219 130.38340332 404.94507813 131.50118164 404.625 132.65283203 C402.67269646 139.34910186 399.89436164 144.80541722 395.56640625 150.265625 C395.11136719 150.86890625 394.65632813 151.4721875 394.1875 152.09375 C385.57905439 162.07325352 371.09700335 166.41546972 358.56640625 168.265625 C357.35210938 168.45640625 356.1378125 168.6471875 354.88671875 168.84375 C337.4856421 171.37613122 320.17574726 171.39270058 302.62890625 171.328125 C294.68828125 171.3075 286.74765625 171.286875 278.56640625 171.265625 C278.56640625 155.095625 278.56640625 138.925625 278.56640625 122.265625 C297.25390625 121.890625 297.25390625 121.890625 303.06518555 121.78759766 C322.10960746 121.837 322.10960746 121.837 339.56640625 115.265625 C346.45371478 107.33390668 346.01887549 95.56164492 345.87890625 85.640625 C345.88212891 84.49078125 345.88535156 83.3409375 345.88867188 82.15625 C345.87003016 68.21466212 345.87003016 68.21466212 339.56640625 56.265625 C316.57257247 40.51928078 261.1145959 49.265625 242.56640625 49.265625 C242.23640625 109.655625 241.90640625 170.045625 241.56640625 232.265625 C229.02640625 232.595625 216.48640625 232.925625 203.56640625 233.265625 C198.84328125 233.44867187 194.12015625 233.63171875 189.25390625 233.8203125 C182.81640625 233.98828125 182.81640625 233.98828125 179.69140625 234.05517578 C177.57862429 234.11294716 175.46640018 234.19565876 173.35546875 234.30126953 C156.40015996 235.11978398 145.86877217 231.59507754 131.96875 221.88287354 C128.30902357 219.41915983 124.46262256 217.32835803 120.56640625 215.265625 C120.01339844 216.01585937 119.46039062 216.76609375 118.890625 217.5390625 C106.84796748 231.66641535 85.55469864 232.94463274 68.32421875 234.33984375 C52.50185538 235.57694451 36.68591547 235.57066955 20.82495117 235.52636719 C16.6973124 235.51494515 12.5699309 235.52176249 8.4423008 235.53325939 C-8.51660209 235.57320376 -25.31553219 235.41178558 -42.19195557 233.51417542 C-44.47716875 233.26079345 -46.76370024 233.0394536 -49.05297852 232.82617188 C-63.13673179 231.47228858 -78.60369317 227.69281955 -88.74609375 217.140625 C-103.65403361 197.76872575 -101.43132092 164.81433963 -98.65966797 141.72314453 C-97.07960792 131.22530465 -93.59131511 121.10092063 -85.55078125 113.79296875 C-77.11832148 107.70977361 -67.86351122 103.83991408 -57.43359375 104.265625 C-57.43359375 103.605625 -57.43359375 102.945625 -57.43359375 102.265625 C-58.01367188 101.99878906 -58.59375 101.73195313 -59.19140625 101.45703125 C-69.36197072 96.05281145 -75.17655962 86.45779313 -78.61328125 75.80834961 C-79.99725857 69.83129757 -79.95143518 63.90786999 -79.84521484 57.81054688 C-79.80851978 55.63624224 -79.80419839 53.46364622 -79.8046875 51.2890625 C-79.73964802 38.18552109 -78.5441241 25.81428055 -69.49609375 15.578125 C-51.67892299 -0.73499887 -22.65331137 -0.06559612 0 0 Z " fill="#FDFDFE" transform="translate(560.43359375,430.734375)"/>
<path d="M0 0 C30.36 0 60.72 0 92 0 C92.16121214 43.5407113 92.16121214 43.5407113 92.1953125 61.89257812 C92.21897715 74.5261897 92.24668162 87.15969397 92.30175781 99.79321289 C92.34186363 108.99724568 92.36748876 118.20119079 92.37635398 127.40530854 C92.38152889 132.27031309 92.39352699 137.13506697 92.42292023 141.99999046 C92.75602285 199.44225427 92.75602285 199.44225427 76 218 C57.47201552 233.2145858 30.71618007 234.11835286 7.8359375 234.203125 C6.60501373 234.20882507 5.37408997 234.21452515 4.10586548 234.22039795 C1.50906212 234.22979202 -1.08775286 234.23635949 -3.68457031 234.24023438 C-7.56598053 234.24985373 -11.4468405 234.28089667 -15.328125 234.3125 C-75.72977157 234.57229203 -75.72977157 234.57229203 -93.484375 217.72265625 C-112.27462537 196.36569642 -108.20712839 161.09817752 -108 135 C-87.87 135 -67.74 135 -47 135 C-46.505 149.355 -46.505 149.355 -46 164 C-43.84054632 174.47339649 -43.84054632 174.47339649 -37 180 C-28.1450374 183.84998374 -18.08220814 183.18270426 -8.625 183.1875 C-7.36171875 183.19974609 -6.0984375 183.21199219 -4.796875 183.22460938 C10.54200688 183.32083148 10.54200688 183.32083148 23.75 176.375 C27.42090177 169.40028663 27.30246832 161.39255831 27.31884766 153.69702148 C27.32889328 152.60330734 27.3389389 151.5095932 27.34928894 150.38273621 C27.37998852 146.79552702 27.39711934 143.20839202 27.4140625 139.62109375 C27.43278477 137.12288277 27.45235897 134.62467804 27.4727478 132.1264801 C27.51873843 126.24067602 27.55618651 120.35486689 27.58942068 114.46897799 C27.63153838 107.10360136 27.68705441 99.73833558 27.7421875 92.37304688 C27.83882115 79.24875146 27.92225281 66.1244209 28 53 C18.76 53 9.52 53 0 53 C0 35.51 0 18.02 0 0 Z " fill="#FDFDFE" transform="translate(339,432)"/>
<path d="M0 0 C0.597556 0.35162704 1.195112 0.70325409 1.81077576 1.0655365 C3.74523578 2.20553289 5.67537449 3.35263039 7.60546875 4.5 C8.9362927 5.28627934 10.26734796 6.0721673 11.59863281 6.85766602 C19.23326205 11.36711657 26.84963621 15.90704071 34.44140625 20.48828125 C38.16910423 22.72576896 41.91679951 24.92719786 45.66796875 27.125 C53.1292747 31.5019113 60.55909098 35.93075917 67.98046875 40.375 C69.05603027 41.01775879 70.1315918 41.66051758 71.23974609 42.32275391 C76.1674758 45.27814834 81.05713258 48.24462384 85.79296875 51.5 C84.79296875 53.5 84.79296875 53.5 82.24536133 54.55541992 C78.36437358 55.61726432 74.54572123 56.20249863 70.5546875 56.61328125 C69.7381218 56.69757889 68.92155609 56.78187653 68.08024597 56.86872864 C57.74416716 57.82423909 47.39291058 57.76318399 37.02172852 57.70581055 C33.59969638 57.68746906 30.17793582 57.68530239 26.75585938 57.68554688 C-15.34774412 57.6196767 -15.34774412 57.6196767 -22.95703125 50.2265625 C-29.78817931 40.79103924 -29.23261972 27.61936034 -28.20703125 16.5 C-27.04016303 9.35144824 -25.23402627 4.44518435 -19.89453125 -0.75 C-12.03434656 -5.8682598 -7.51553486 -4.44483118 0 0 Z " fill="#2D20EF" transform="translate(549.20703125,563.5)"/>
<path d="M0 0 C1.13661575 -0.00315216 2.27323151 -0.00630432 3.44429016 -0.009552 C4.68881454 -0.00752777 5.93333893 -0.00550354 7.21557617 -0.00341797 C9.13994759 -0.00485306 9.13994759 -0.00485306 11.10319519 -0.00631714 C13.83801461 -0.00779715 16.57280154 -0.00563651 19.30761719 -0.00097656 C22.75117713 0.00461477 26.19465809 0.00141051 29.63821507 -0.00440788 C41.83405465 -0.02200911 54.02706571 -0.0281544 66.21166992 0.55126953 C66.98754959 0.58686981 67.76342926 0.62247009 68.56282043 0.65914917 C77.00936375 1.13095695 84.53498065 2.54323888 91.69604492 7.12939453 C91.03604492 7.45939453 90.37604492 7.78939453 89.69604492 8.12939453 C87.96430699 7.54923317 86.25869609 6.88998979 84.57104492 6.19189453 C79.60080884 4.28227751 75.96783333 3.8365174 70.69604492 4.12939453 C70.20104492 3.63439453 70.20104492 3.63439453 69.69604492 3.12939453 C67.42684267 3.00523233 65.15378042 2.95135705 62.88134766 2.92407227 C62.16919098 2.91417267 61.4570343 2.90427307 60.72329712 2.89407349 C58.35877864 2.86237242 55.99424003 2.83766729 53.62963867 2.81298828 C51.9943844 2.79242617 50.35913554 2.7714299 48.72389221 2.75001526 C44.41175706 2.69471781 40.09957334 2.64534252 35.78735352 2.59716797 C31.39033669 2.54700881 26.99339073 2.49129366 22.59643555 2.43603516 C13.96303185 2.3283598 5.32956903 2.22693582 -3.30395508 2.12939453 C-3.30211149 3.06553022 -3.30026791 4.00166592 -3.29836845 4.96616936 C-3.25402285 27.71588012 -3.22112903 50.4655853 -3.20033073 73.21533012 C-3.19000621 84.2168112 -3.17592348 95.21826378 -3.15307617 106.21972656 C-3.13317822 115.8055578 -3.12024721 125.39136839 -3.11577809 134.9772197 C-3.1131646 140.05559793 -3.10699748 145.13391711 -3.09249496 150.21227646 C-3.07896778 154.98757856 -3.07472253 159.76279701 -3.07773972 164.53811646 C-3.07718736 166.29496845 -3.07318106 168.05182311 -3.06554413 169.8086586 C-3.05565883 172.19903066 -3.05796247 174.58908289 -3.06344604 176.97946167 C-3.05762036 177.68178858 -3.05179468 178.38411548 -3.04579246 179.10772502 C-3.07571266 183.90115211 -3.07571266 183.90115211 -5.30395508 186.12939453 C-8.24492245 186.30478889 -11.09048856 186.36071828 -14.03051758 186.32470703 C-15.32474136 186.32046219 -15.32474136 186.32046219 -16.64511108 186.31613159 C-19.40653227 186.30491786 -22.16763158 186.27981137 -24.92895508 186.25439453 C-26.79874207 186.24436626 -28.66853413 186.23524015 -30.53833008 186.22705078 C-35.12699616 186.20497465 -39.71542101 186.17043688 -44.30395508 186.12939453 C-44.30395508 185.46939453 -44.30395508 184.80939453 -44.30395508 184.12939453 C-31.76395508 184.12939453 -19.22395508 184.12939453 -6.30395508 184.12939453 C-6.30919189 178.59101807 -6.31442871 173.0526416 -6.31982422 167.34643555 C-6.33635483 149.09779074 -6.347475 130.84914566 -6.35576725 112.60049534 C-6.36093079 101.53061607 -6.36797458 90.46074387 -6.37939453 79.39086914 C-6.38933961 69.74608399 -6.39580808 60.10130396 -6.39804357 50.45651382 C-6.39935098 45.34632892 -6.40243872 40.23615868 -6.40968513 35.12597847 C-6.41644258 30.32196894 -6.4185726 25.5179802 -6.41706276 20.71396637 C-6.41733921 18.9454099 -6.41934596 17.17685278 -6.42316055 15.4083004 C-6.42809351 13.0045198 -6.42695485 10.60081896 -6.42420959 8.19703674 C-6.42712244 7.48790605 -6.43003528 6.77877535 -6.43303639 6.04815584 C-6.41440991 0.06600838 -5.85148357 0.00463986 0 0 Z " fill="#5148E6" transform="translate(808.303955078125,478.87060546875)"/>
<path d="M0 0 C0.74636719 -0.01546875 1.49273438 -0.0309375 2.26171875 -0.046875 C5.8754375 -0.02129115 8.19651223 0.35419909 11.4921875 1.9375 C14.51367248 5.79371429 14.23284114 9.23342142 14.125 14 C14.15400391 15.28197266 14.15400391 15.28197266 14.18359375 16.58984375 C14.15191503 20.65105522 14.044283 22.80535088 11.4921875 26.0625 C7.53140052 27.96533239 4.33956089 28.08993909 0 28 C-0.74636719 28.01546875 -1.49273438 28.0309375 -2.26171875 28.046875 C-5.8754375 28.02129115 -8.19651223 27.64580091 -11.4921875 26.0625 C-14.51367248 22.20628571 -14.23284114 18.76657858 -14.125 14 C-14.14433594 13.14535156 -14.16367187 12.29070313 -14.18359375 11.41015625 C-14.15191503 7.34894478 -14.044283 5.19464912 -11.4921875 1.9375 C-7.53140052 0.03466761 -4.33956089 -0.08993909 0 0 Z " fill="#E4E1FE" transform="translate(635.5,721.5)"/>
<path d="M0 0 C3.3825 -0.0825 6.765 -0.165 10.25 -0.25 C11.30993164 -0.28641602 12.36986328 -0.32283203 13.46191406 -0.36035156 C20.33721586 -0.4418561 20.33721586 -0.4418561 23.6484375 1.765625 C25.74898777 5.238211 25.5642539 8.06634421 25 12 C24 14.5 24 14.5 23 16 C23.66 16.66 24.32 17.32 25 18 C25.1953125 20.1640625 25.1953125 20.1640625 25.125 22.625 C25.10695313 23.44226563 25.08890625 24.25953125 25.0703125 25.1015625 C25.04710937 25.72804688 25.02390625 26.35453125 25 27 C23.35 27 21.7 27 20 27 C19.8046875 24.98177083 19.609375 22.96354167 19.4140625 20.9453125 C19.13625251 18.77331755 19.13625251 18.77331755 17 17 C14.10776497 16.53603307 14.10776497 16.53603307 10.875 16.375 C9.77929688 16.30023437 8.68359375 16.22546875 7.5546875 16.1484375 C6.71164062 16.09945312 5.86859375 16.05046875 5 16 C5 19.63 5 23.26 5 27 C3.35 27 1.7 27 0 27 C0 18.09 0 9.18 0 0 Z " fill="#EFECFE" transform="translate(517,722)"/>
<path d="M0 0 C3.3825 -0.061875 6.765 -0.12375 10.25 -0.1875 C11.30993164 -0.21481201 12.36986328 -0.24212402 13.46191406 -0.27026367 C14.72600098 -0.28150269 14.72600098 -0.28150269 16.015625 -0.29296875 C16.87446289 -0.3086792 17.73330078 -0.32438965 18.61816406 -0.34057617 C21.53076028 0.07589285 22.88720172 0.9811574 25 3 C25.390625 5.48046875 25.390625 5.48046875 25.25 8.1875 C25.21390625 9.08855469 25.1778125 9.98960937 25.140625 10.91796875 C25.07101562 11.94857422 25.07101562 11.94857422 25 13 C24.01 13.495 24.01 13.495 23 14 C23.32742188 14.56203125 23.65484375 15.1240625 23.9921875 15.703125 C25.11785494 18.26859964 25.2068111 19.96842277 25.125 22.75 C25.10695313 23.54921875 25.08890625 24.3484375 25.0703125 25.171875 C25.04710937 25.77515625 25.02390625 26.3784375 25 27 C23.68 27 22.36 27 21 27 C20.83723958 24.98177083 20.67447917 22.96354167 20.51171875 20.9453125 C20.12606964 18.60480784 20.12606964 18.60480784 17 17 C14.03157342 16.54084493 14.03157342 16.54084493 10.8125 16.375 C9.18248047 16.26285156 9.18248047 16.26285156 7.51953125 16.1484375 C6.68808594 16.09945312 5.85664063 16.05046875 5 16 C5 19.63 5 23.26 5 27 C3.35 27 1.7 27 0 27 C0 18.09 0 9.18 0 0 Z " fill="#F1EFFE" transform="translate(376,722)"/>
<path d="M0 0 C3.3825 -0.0825 6.765 -0.165 10.25 -0.25 C11.30993164 -0.28641602 12.36986328 -0.32283203 13.46191406 -0.36035156 C20.32841787 -0.4417518 20.32841787 -0.4417518 23.63671875 1.734375 C25.12996392 4.21598588 25.56743317 5.61902909 25.5625 8.5 C25.58441406 9.2528125 25.60632813 10.005625 25.62890625 10.78125 C24.65612879 14.21316052 23.03779157 15.21590019 20 17 C17.23866047 17.28614917 14.91854388 17.38589883 12.1875 17.25 C11.49462891 17.23195313 10.80175781 17.21390625 10.08789062 17.1953125 C8.39132336 17.14851064 6.69547524 17.07677624 5 17 C5 20.3 5 23.6 5 27 C3.35 27 1.7 27 0 27 C0 18.09 0 9.18 0 0 Z " fill="#E9E6FE" transform="translate(297,722)"/>
<path d="M0 0 C31.02 0 62.04 0 94 0 C95.42124641 2.84249282 95.10440206 5.2115255 95.08229065 8.39065552 C95.07906152 9.05389985 95.07583239 9.71714418 95.07250541 10.40048683 C95.06039742 12.63309689 95.04103152 14.86558592 95.02172852 17.09814453 C95.01158921 18.69447565 95.00189516 20.29080965 94.99261475 21.887146 C94.96609889 26.22990383 94.93332654 30.57259492 94.89946485 34.91530085 C94.86515627 39.45033596 94.83655447 43.9854069 94.80735779 48.52047729 C94.75117095 57.11235562 94.68982175 65.70418909 94.62663645 74.29601848 C94.55496493 84.07577989 94.48902009 93.85557725 94.42356598 103.63538194 C94.28876778 123.756968 94.14674638 143.87849776 94 164 C93.67 164 93.34 164 93 164 C93 110.54 93 57.08 93 2 C62.31 2 31.62 2 0 2 C0 1.34 0 0.68 0 0 Z " fill="#6B63E7" transform="translate(338,430)"/>
<path d="M0 0 C1.65 0 3.3 0 5 0 C10.859375 11.71875 10.859375 11.71875 11.91992188 13.8515625 C12.65361487 15.31098798 13.4002133 16.76398222 14.15820312 18.2109375 C14.52365234 18.91476562 14.88910156 19.61859375 15.265625 20.34375 C15.76497559 21.29024414 15.76497559 21.29024414 16.27441406 22.25585938 C17 24 17 24 17 27 C15.35 26.67 13.7 26.34 12 26 C11.34 24.02 10.68 22.04 10 20 C5.38 20 0.76 20 -4 20 C-4.66 21.98 -5.32 23.96 -6 26 C-7 27 -7 27 -9.5625 27.0625 C-10.366875 27.041875 -11.17125 27.02125 -12 27 C-8 18 -4 9 0 0 Z " fill="#EDEBFE" transform="translate(819,722)"/>
<path d="M0 0 C0.7115625 -0.00708984 1.423125 -0.01417969 2.15625 -0.02148438 C5.30941004 0.01675357 7.67617841 0.27204741 10.5 1.71484375 C12 3.4375 12 3.4375 12 7.4375 C10.68 7.4375 9.36 7.4375 8 7.4375 C7.67 6.7775 7.34 6.1175 7 5.4375 C3.72444392 4.96748967 3.72444392 4.96748967 -0.0625 4.8125 C-1.99802734 4.70035156 -1.99802734 4.70035156 -3.97265625 4.5859375 C-5.47119141 4.51246094 -5.47119141 4.51246094 -7 4.4375 C-7 6.7475 -7 9.0575 -7 11.4375 C-5.46279297 11.36789062 -5.46279297 11.36789062 -3.89453125 11.296875 C-2.53388344 11.25933989 -1.17320395 11.22294159 0.1875 11.1875 C0.86103516 11.15398438 1.53457031 11.12046875 2.22851562 11.0859375 C5.81216627 11.01601261 7.8524657 11.34917483 10.94921875 13.203125 C13.09182428 15.53754473 13.68560009 16.33477521 13.625 19.4375 C13.63789062 20.0975 13.65078125 20.7575 13.6640625 21.4375 C12.59002864 24.67223727 10.88774082 25.70637738 8 27.4375 C5.15036099 27.80491539 2.76648911 27.95538374 -0.0625 27.875 C-0.76955078 27.88208984 -1.47660156 27.88917969 -2.20507812 27.89648438 C-5.34274252 27.85818425 -7.68736623 27.5974863 -10.49609375 26.16015625 C-12 24.4375 -12 24.4375 -12 20.4375 C-10.35 20.4375 -8.7 20.4375 -7 20.4375 C-7 21.4275 -7 22.4175 -7 23.4375 C-2.38 23.1075 2.24 22.7775 7 22.4375 C7 20.4575 7 18.4775 7 16.4375 C5.96359375 16.41171875 4.9271875 16.3859375 3.859375 16.359375 C2.48954199 16.30308049 1.11975195 16.24573345 -0.25 16.1875 C-1.27287109 16.16623047 -1.27287109 16.16623047 -2.31640625 16.14453125 C-5.71000974 15.97979322 -7.70240346 15.65927577 -10.453125 13.609375 C-12.72627529 10.41778015 -12.54545019 8.25565131 -12 4.4375 C-8.78655571 -0.16133227 -5.22372416 -0.14668066 0 0 Z " fill="#E2DFFE" transform="translate(677,721.5625)"/>
<path d="M0 0 C1.06734375 -0.01740234 1.06734375 -0.01740234 2.15625 -0.03515625 C5.31445219 -0.01747975 7.66839533 0.20608887 10.5 1.6484375 C12 3.375 12 3.375 12 7.375 C10.35 7.375 8.7 7.375 7 7.375 C7 6.385 7 5.395 7 4.375 C2.38 4.375 -2.24 4.375 -7 4.375 C-7 6.685 -7 8.995 -7 11.375 C-5.46279297 11.30539062 -5.46279297 11.30539062 -3.89453125 11.234375 C-2.53388344 11.19683989 -1.17320395 11.16044159 0.1875 11.125 C0.86103516 11.09148438 1.53457031 11.05796875 2.22851562 11.0234375 C5.81216627 10.95351261 7.8524657 11.28667483 10.94921875 13.140625 C13.09182428 15.47504473 13.68560009 16.27227521 13.625 19.375 C13.63789062 20.035 13.65078125 20.695 13.6640625 21.375 C12.59002864 24.60973727 10.88774082 25.64387738 8 27.375 C5.15036099 27.74241539 2.76648911 27.89288374 -0.0625 27.8125 C-0.76955078 27.81958984 -1.47660156 27.82667969 -2.20507812 27.83398438 C-5.34274252 27.79568425 -7.68736623 27.5349863 -10.49609375 26.09765625 C-12 24.375 -12 24.375 -12 20.375 C-10.68 20.375 -9.36 20.375 -8 20.375 C-7.67 21.035 -7.34 21.695 -7 22.375 C-2.38 22.375 2.24 22.375 7 22.375 C7 20.395 7 18.415 7 16.375 C5.96359375 16.33761719 4.9271875 16.30023437 3.859375 16.26171875 C2.48954816 16.19604212 1.11975809 16.12959536 -0.25 16.0625 C-1.27287109 16.02866211 -1.27287109 16.02866211 -2.31640625 15.99414062 C-5.36664043 15.83126404 -7.7221956 15.51788347 -10.453125 14.11328125 C-12.40285918 11.92229208 -12.53875085 10.78131402 -12.5 7.875 C-12.5103125 7.1015625 -12.520625 6.328125 -12.53125 5.53125 C-12 3.375 -12 3.375 -10.46875 1.6171875 C-7.01578408 -0.12022257 -3.77626471 -0.06156953 0 0 Z " fill="#E1DDFE" transform="translate(762,721.625)"/>
<path d="M0 0 C7.59 0 15.18 0 23 0 C23 1.32 23 2.64 23 4 C17.06 4 11.12 4 5 4 C5 6.64 5 9.28 5 12 C10.28 12 15.56 12 21 12 C21 12.99 21 13.98 21 15 C15.72 15 10.44 15 5 15 C5 17.64 5 20.28 5 23 C10.94 23 16.88 23 23 23 C23 24.32 23 25.64 23 27 C15.41 27 7.82 27 0 27 C0 18.09 0 9.18 0 0 Z " fill="#E6E3FD" transform="translate(478,722)"/>
<path d="M0 0 C1.26972656 0.00257813 2.53945313 0.00515625 3.84765625 0.0078125 C5.11480469 0.00523437 6.38195312 0.00265625 7.6875 0 C10.91015625 0.1328125 10.91015625 0.1328125 12.91015625 1.1328125 C12.93699937 3.94537531 12.95691813 6.75768491 12.97265625 9.5703125 C12.98103516 10.37275391 12.98941406 11.17519531 12.99804688 12.00195312 C13.00667055 14.04576471 12.96243775 16.08965152 12.91015625 18.1328125 C11.15455683 19.88841192 8.87433183 19.26503169 6.5390625 19.26953125 C5.83652344 19.26566406 5.13398437 19.26179687 4.41015625 19.2578125 C3.70761719 19.26167969 3.00507812 19.26554688 2.28125 19.26953125 C-2.96322997 19.25942628 -2.96322997 19.25942628 -4.08984375 18.1328125 C-4.1897135 15.28946202 -4.22862256 12.47584087 -4.21484375 9.6328125 C-4.21871094 8.83488281 -4.22257813 8.03695312 -4.2265625 7.21484375 C-4.21462076 0.18115943 -4.21462076 0.18115943 0 0 Z " fill="#2D21E8" transform="translate(631.08984375,725.8671875)"/>
<path d="M0 0 C7.59 0 15.18 0 23 0 C23 0.99 23 1.98 23 3 C17.06 3 11.12 3 5 3 C5 5.97 5 8.94 5 12 C10.61 12 16.22 12 22 12 C22 12.99 22 13.98 22 15 C16.39 15 10.78 15 5 15 C5 17.64 5 20.28 5 23 C11.27 23 17.54 23 24 23 C24 24.32 24 25.64 24 27 C16.08 27 8.16 27 0 27 C0 18.09 0 9.18 0 0 Z " fill="#E4E1FE" transform="translate(337,722)"/>
<path d="M0 0 C1.04800781 -0.02320313 1.04800781 -0.02320313 2.1171875 -0.046875 C5.75494419 -0.01942023 7.88361144 0.42846953 11 2.34375 C13 4.5 13 4.5 13 7.5 C11.35 7.5 9.7 7.5 8 7.5 C7.67 6.84 7.34 6.18 7 5.5 C2.38 5.5 -2.24 5.5 -7 5.5 C-7 11.11 -7 16.72 -7 22.5 C-2.38 22.5 2.24 22.5 7 22.5 C7.33 21.84 7.66 21.18 8 20.5 C9.65 20.5 11.3 20.5 13 20.5 C12.65391975 23.00908185 12.22438011 24.26714205 10.44921875 26.109375 C7.04492791 28.04227379 3.8718427 27.9756976 0.0625 27.9375 C-0.99227539 27.9674707 -0.99227539 27.9674707 -2.06835938 27.99804688 C-5.46598565 27.9948626 -7.90246002 27.5471636 -10.96484375 26.06640625 C-14.02126876 22.21214285 -13.73323377 18.78393275 -13.625 14 C-13.64433594 13.14535156 -13.66367187 12.29070313 -13.68359375 11.41015625 C-13.65174881 7.32763496 -13.55284839 5.19476733 -10.9609375 1.9375 C-7.25115344 0.13644389 -4.03898513 -0.08942402 0 0 Z " fill="#E5E1FD" transform="translate(594,721.5)"/>
<path d="M0 0 C1.04800781 -0.02320313 1.04800781 -0.02320313 2.1171875 -0.046875 C5.75494419 -0.01942023 7.88361144 0.42846953 11 2.34375 C13 4.5 13 4.5 13 7.5 C11.35 7.5 9.7 7.5 8 7.5 C7.67 6.84 7.34 6.18 7 5.5 C2.38 5.5 -2.24 5.5 -7 5.5 C-7 11.11 -7 16.72 -7 22.5 C-2.38 22.5 2.24 22.5 7 22.5 C7.33 21.84 7.66 21.18 8 20.5 C9.65 20.5 11.3 20.5 13 20.5 C12.65391975 23.00908185 12.22438011 24.26714205 10.44921875 26.109375 C7.04492791 28.04227379 3.8718427 27.9756976 0.0625 27.9375 C-0.99227539 27.9674707 -0.99227539 27.9674707 -2.06835938 27.99804688 C-5.46598565 27.9948626 -7.90246002 27.5471636 -10.96484375 26.06640625 C-14.02126876 22.21214285 -13.73323377 18.78393275 -13.625 14 C-13.64433594 13.14535156 -13.66367187 12.29070313 -13.68359375 11.41015625 C-13.65174881 7.32763496 -13.55284839 5.19476733 -10.9609375 1.9375 C-7.25115344 0.13644389 -4.03898513 -0.08942402 0 0 Z " fill="#E7E4FE" transform="translate(883,721.5)"/>
<path d="M0 0 C7.26 0 14.52 0 22 0 C22 1.32 22 2.64 22 4 C16.39 4 10.78 4 5 4 C5 6.64 5 9.28 5 12 C9.95 12 14.9 12 20 12 C20 13.32 20 14.64 20 16 C15.05 16 10.1 16 5 16 C5 19.63 5 23.26 5 27 C3.35 27 1.7 27 0 27 C0 18.09 0 9.18 0 0 Z " fill="#DFDCFB" transform="translate(441,722)"/>
<path d="M0 0 C1.14440804 -0.00262848 1.14440804 -0.00262848 2.31193542 -0.00531006 C4.836398 -0.00971451 7.3607906 -0.00679493 9.88525391 -0.00341797 C11.64018772 -0.00409155 13.39512144 -0.00506203 15.15005493 -0.00631714 C18.83035164 -0.00779232 22.51062408 -0.00564582 26.19091797 -0.00097656 C30.90417609 0.00471222 35.61737715 0.00144598 40.33063316 -0.00454903 C43.95604887 -0.00816663 47.5814511 -0.00701038 51.20686722 -0.00442123 C52.94437288 -0.00375485 54.68187977 -0.0045703 56.419384 -0.00690079 C58.85123673 -0.00944603 61.28299783 -0.00555993 63.71484375 0 C64.43086258 -0.00202423 65.14688141 -0.00404846 65.88459778 -0.00613403 C69.55098724 0.00936013 72.91814436 0.29052595 76.48681641 1.12939453 C77.88662103 1.26444509 79.28954683 1.37076181 80.69384766 1.44580078 C81.44472656 1.48769531 82.19560547 1.52958984 82.96923828 1.57275391 C83.73816406 1.61207031 84.50708984 1.65138672 85.29931641 1.69189453 C86.48170898 1.75666992 86.48170898 1.75666992 87.68798828 1.82275391 C89.62075856 1.92817774 91.55376667 2.02922547 93.48681641 2.12939453 C93.48681641 2.78939453 93.48681641 3.44939453 93.48681641 4.12939453 C94.35693359 4.0771875 94.35693359 4.0771875 95.24462891 4.02392578 C100.49595041 3.84194929 103.8819286 4.29561742 108.48681641 7.12939453 C105.55481677 8.59539435 103.77271259 7.60154052 100.61181641 6.81689453 C80.20234965 2.33305667 59.43625407 2.784102 38.65380859 2.8137207 C35.13642567 2.8183451 31.61938908 2.81144591 28.10205078 2.79321289 C7.67326822 2.688048 -12.27525383 3.00900035 -32.51318359 6.12939453 C-32.84318359 5.46939453 -33.17318359 4.80939453 -33.51318359 4.12939453 C-28.34676468 2.45909941 -23.67468969 1.77386445 -18.26318359 1.56689453 C-12.0323415 1.29969601 -6.24083995 -0.01754406 0 0 Z " fill="#3228D1" transform="translate(548.51318359375,428.87060546875)"/>
<path d="M0 0 C7.47760581 -0.02347732 14.95520765 -0.04109107 22.43284225 -0.05181217 C25.90739013 -0.0569654 29.38191225 -0.06391994 32.85644531 -0.07543945 C59.41042869 -0.16095163 59.41042869 -0.16095163 71.51953125 0.41796875 C72.29516418 0.45381577 73.07079712 0.48966278 73.86993408 0.52659607 C82.31440775 1.00222681 89.84046793 2.41482562 97 7 C96.34 7.33 95.68 7.66 95 8 C93.26826207 7.41983864 91.56265117 6.76059526 89.875 6.0625 C84.90476392 4.15288298 81.27178841 3.70712287 76 4 C75.505 3.505 75.505 3.505 75 3 C72.65847159 2.87515846 70.34492415 2.81400709 68.00170898 2.79467773 C66.90421326 2.77982834 66.90421326 2.77982834 65.7845459 2.76467896 C63.35509528 2.73297617 60.92562507 2.70827207 58.49609375 2.68359375 C56.81599913 2.66303178 55.13590977 2.64203552 53.45582581 2.62062073 C49.02532197 2.56532174 44.59477085 2.51594713 40.16418457 2.46777344 C35.64652275 2.4176154 31.12892992 2.36189967 26.61132812 2.30664062 C17.7409443 2.1989634 8.87050068 2.09753982 0 2 C0 1.34 0 0.68 0 0 Z " fill="#5C55DB" transform="translate(803,479)"/>
<path d="M0 0 C2.89640118 -0.08120751 5.79050912 -0.14059421 8.6875 -0.1875 C9.50412109 -0.21263672 10.32074219 -0.23777344 11.16210938 -0.26367188 C15.97846486 -0.32217012 19.03975154 -0.07302376 23 3 C22.67 5.31 22.34 7.62 22 10 C20.68 10 19.36 10 18 10 C19.2375 10.928125 19.2375 10.928125 20.5 11.875 C22.49013007 13.80907007 22.96918044 14.76250807 23.33203125 17.55859375 C23.31432259 20.0555153 23.21731991 22.51289435 23 25 C22.01 25 21.02 25 20 25 C20.33 24.67 20.66 24.34 21 24 C21.41319366 19.95198727 21.41319366 19.95198727 21 16 C18.57378909 13.28980511 16.9610822 12.99457635 13.328125 12.48828125 C11.96942348 12.41572923 10.6098933 12.35748702 9.25 12.3125 C8.55261719 12.27833984 7.85523438 12.24417969 7.13671875 12.20898438 C5.42502892 12.12691705 3.7125424 12.06177081 2 12 C2 9.69 2 7.38 2 5 C6.62 5 11.24 5 16 5 C16.33 5.99 16.66 6.98 17 8 C18.32 8 19.64 8 21 8 C20.72382467 6.05925139 20.72382467 6.05925139 20 4 C16.95318939 1.96879293 16.39881676 1.75340125 12.98828125 1.8046875 C12.23095703 1.81113281 11.47363281 1.81757812 10.69335938 1.82421875 C9.90767578 1.84097656 9.12199219 1.85773437 8.3125 1.875 C7.51521484 1.88402344 6.71792969 1.89304687 5.89648438 1.90234375 C3.930861 1.92588415 1.96539225 1.96175453 0 2 C0 1.34 0 0.68 0 0 Z " fill="#3329D4" transform="translate(668,721)"/>
<path d="M0 0 C2.29141286 -0.05384521 4.58318188 -0.09272087 6.875 -0.125 C8.78925781 -0.15980469 8.78925781 -0.15980469 10.7421875 -0.1953125 C14 0 14 0 16 2 C16.1875 5.5625 16.1875 5.5625 16 9 C15 10 15 10 11.62109375 10.09765625 C10.22652923 10.09098369 8.83198257 10.07902532 7.4375 10.0625 C6.37112305 10.05573242 6.37112305 10.05573242 5.28320312 10.04882812 C3.52209987 10.03700864 1.76103964 10.01907263 0 10 C0 6.7 0 3.4 0 0 Z " fill="#2C1FEF" transform="translate(301,725)"/>
<path d="M0 0 C2.29141286 -0.05384521 4.58318188 -0.09272087 6.875 -0.125 C8.78925781 -0.15980469 8.78925781 -0.15980469 10.7421875 -0.1953125 C14 0 14 0 16 2 C16.125 5.625 16.125 5.625 16 9 C12.99686252 10.50156874 10.20932478 10.09281204 6.875 10.0625 C5.59367188 10.05347656 4.31234375 10.04445313 2.9921875 10.03515625 C1.51105469 10.01775391 1.51105469 10.01775391 0 10 C0 6.7 0 3.4 0 0 Z " fill="#4D45CF" transform="translate(521,725)"/>
<path d="M0 0 C2.29141286 -0.05384521 4.58318188 -0.09272087 6.875 -0.125 C8.78925781 -0.15980469 8.78925781 -0.15980469 10.7421875 -0.1953125 C14 0 14 0 16 2 C16.25 5 16.25 5 16 8 C14 10 14 10 10.7421875 10.1953125 C9.46601563 10.17210937 8.18984375 10.14890625 6.875 10.125 C4.95300781 10.09792969 4.95300781 10.09792969 2.9921875 10.0703125 C1.51105469 10.03550781 1.51105469 10.03550781 0 10 C0 6.7 0 3.4 0 0 Z " fill="#3C31DE" transform="translate(381,725)"/>
<path d="M0 0 C1.65322266 0.01740234 1.65322266 0.01740234 3.33984375 0.03515625 C4.44457031 0.04417969 5.54929687 0.05320312 6.6875 0.0625 C7.54214844 0.07410156 8.39679688 0.08570313 9.27734375 0.09765625 C5.63865434 2.52344919 2.48071475 2.78819933 -1.7578125 3.2109375 C-3.00172508 3.33738396 -3.00172508 3.33738396 -4.27076721 3.46638489 C-14.73525497 4.41871275 -25.21472798 4.36113246 -35.71362305 4.3034668 C-39.17959893 4.28505296 -42.64530804 4.28295906 -46.11132812 4.28320312 C-48.35547102 4.27829108 -50.59961215 4.27246414 -52.84375 4.265625 C-54.3675956 4.26395576 -54.3675956 4.26395576 -55.92222595 4.26225281 C-62.8958042 4.21680095 -69.78186146 3.76691616 -76.72265625 3.09765625 C-76.72265625 2.76765625 -76.72265625 2.43765625 -76.72265625 2.09765625 C-75.8103273 2.08734879 -74.89799835 2.07704132 -73.95802307 2.06642151 C-65.37875621 1.96862364 -56.79956118 1.86613497 -48.22041416 1.75831699 C-43.80932225 1.70304793 -39.39822376 1.64962171 -34.98706055 1.6003418 C-30.73358638 1.5527568 -26.48019536 1.50041639 -22.22681999 1.4447155 C-20.60046382 1.42426527 -18.97408483 1.40555669 -17.34768867 1.38858223 C-15.07749262 1.36459698 -12.80745512 1.3345349 -10.53735352 1.30297852 C-9.24273697 1.28743423 -7.94812042 1.27188995 -6.61427307 1.25587463 C-3.3531494 1.07743823 -3.20773702 0.11505513 0 0 Z " fill="#483FD1" transform="translate(621.72265625,616.90234375)"/>
<path d="M0 0 C-6.57178385 3.08471487 -12.74667282 3.49296577 -19.90234375 3.7890625 C-22.86924996 3.65010554 -22.86924996 3.65010554 -24 5 C-26.83040672 5.09520906 -29.63634993 5.12553631 -32.46704102 5.11352539 C-33.35476196 5.11367142 -34.24248291 5.11381744 -35.15710449 5.1139679 C-38.10606284 5.11326843 -41.05495887 5.10547448 -44.00390625 5.09765625 C-46.04271917 5.09579219 -48.08153254 5.09436823 -50.12034607 5.09336853 C-55.49784574 5.08954241 -60.87531858 5.07971132 -66.25280762 5.06866455 C-71.73559201 5.05845245 -77.21838072 5.05387134 -82.70117188 5.04882812 C-93.46745973 5.03808914 -104.23372764 5.02101159 -115 5 C-115 4.67 -115 4.34 -115 4 C-114.13065826 3.99191315 -113.26131653 3.98382629 -112.3656311 3.97549438 C-104.04428315 3.8965172 -95.72307493 3.8089483 -87.40191078 3.71247292 C-83.12718355 3.6631949 -78.85247333 3.61687947 -74.57763672 3.578125 C-50.40617904 3.3701732 -50.40617904 3.3701732 -26.2734375 2.0859375 C-24.77449448 1.97181015 -24.77449448 1.97181015 -23.24526978 1.8553772 C-17.53362822 1.3638309 -12.00675777 0.50555308 -6.40054321 -0.69833374 C-3.93702604 -1.00791368 -2.33955157 -0.76984864 0 0 Z " fill="#342ACC" transform="translate(655,662)"/>
<path d="M0 0 C1.65 0 3.3 0 5 0 C5 8.91 5 17.82 5 27 C3.35 27 1.7 27 0 27 C0 18.09 0 9.18 0 0 Z " fill="#EEEBFF" transform="translate(559,722)"/>
<path d="M0 0 C4.84522458 0.51827966 9.67520488 1.08306397 14.50292969 1.74511719 C30.18305569 3.82610282 45.59204973 4.41037605 61.39990234 4.28125 C65.28883407 4.2496848 69.17735806 4.24021514 73.06640625 4.234375 C75.59115071 4.22521564 78.11589112 4.2148433 80.640625 4.203125 C81.77735657 4.19887512 82.91408813 4.19462524 84.08526611 4.19024658 C92.08803386 4.12011006 100.02420897 3.65092789 108 3 C107.67 3.99 107.34 4.98 107 6 C97.86195521 6.0468803 88.72395346 6.0821461 79.58581352 6.10362434 C75.34004261 6.11394632 71.09435551 6.12788595 66.84863281 6.15087891 C14.61682654 6.42623707 14.61682654 6.42623707 1 2 C0.67 1.34 0.34 0.68 0 0 Z " fill="#3329CA" transform="translate(266,661)"/>
<path d="M0 0 C0.83513626 0.00358521 1.67027252 0.00717041 2.53071594 0.01086426 C12.82885672 0.07496537 23.12328803 0.33391983 33.41796875 0.59375 C35.40298968 0.64213742 37.38801572 0.69031551 39.37304688 0.73828125 C44.15891627 0.85436972 48.94470852 0.9732487 53.73046875 1.09375 C53.73046875 1.42375 53.73046875 1.75375 53.73046875 2.09375 C53.023992 2.09961624 52.31751526 2.10548248 51.58963013 2.11152649 C44.79868422 2.17040988 38.00799456 2.24298916 31.2173481 2.32946491 C27.72955931 2.3734371 24.24186811 2.41283226 20.75390625 2.44018555 C2.58951511 2.5866712 -15.25802645 3.55571598 -33.26953125 6.09375 C-33.59953125 5.43375 -33.92953125 4.77375 -34.26953125 4.09375 C-29.10311234 2.42345488 -24.43103734 1.73821992 -19.01953125 1.53125 C-12.5343442 1.25314435 -6.50977291 -0.05321081 0 0 Z " fill="#4E45D3" transform="translate(549.26953125,428.90625)"/>
<path d="M0 0 C4.62 0 9.24 0 14 0 C14 0.99 14 1.98 14 3 C15.65 3 17.3 3 19 3 C19 3.66 19 4.32 19 5 C18.01 5 17.02 5 16 5 C16.66 6.65 17.32 8.3 18 10 C17.01 9.34 16.02 8.68 15 8 C12.41114829 7.70008931 9.90850918 7.49134775 7.3125 7.375 C6.2596582 7.31699219 6.2596582 7.31699219 5.18554688 7.2578125 C3.45745345 7.1637666 1.72876325 7.0808032 0 7 C0 4.69 0 2.38 0 0 Z " fill="#2F24E0" transform="translate(755,726)"/>
<path d="M0 0 C0.5625 1.9375 0.5625 1.9375 1 4 C0 5 0 5 -3.37890625 5.09765625 C-4.77347077 5.09098369 -6.16801743 5.07902532 -7.5625 5.0625 C-8.27341797 5.05798828 -8.98433594 5.05347656 -9.71679688 5.04882812 C-11.47790013 5.03700864 -13.23896036 5.01907263 -15 5 C-15 6.32 -15 7.64 -15 9 C-13.86820312 8.97679687 -12.73640625 8.95359375 -11.5703125 8.9296875 C-10.08854825 8.91093099 -8.60677688 8.89273066 -7.125 8.875 C-6.37863281 8.85824219 -5.63226563 8.84148438 -4.86328125 8.82421875 C-2.90805539 8.8066041 -0.95257979 8.89679811 1 9 C1.66 9.66 2.32 10.32 3 11 C2.67 12.65 2.34 14.3 2 16 C-5.92 16 -13.84 16 -22 16 C-22 15.67 -22 15.34 -22 15 C-14.41 15 -6.82 15 1 15 C1 13.68 1 12.36 1 11 C-4.94 11 -10.88 11 -17 11 C-17 8.36 -17 5.72 -17 3 C-11.39 3 -5.78 3 0 3 C0 2.01 0 1.02 0 0 Z " fill="#2F24CC" transform="translate(500,734)"/>
<path d="M0 0 C0.66 0 1.32 0 2 0 C1.9292627 0.88196045 1.85852539 1.7639209 1.78564453 2.67260742 C1.10631991 11.83035694 0.8430478 20.92691627 0.86962891 30.10864258 C0.87503864 32.32835581 0.86961561 34.54787056 0.86328125 36.76757812 C0.86016424 44.23749851 1.07659337 51.57610384 2 59 C1.34 58.67 0.68 58.34 0 58 C-0.37890625 56.1875 -0.37890625 56.1875 -0.5625 54 C-0.62665408 51.21067942 -0.62665408 51.21067942 -2 49 C-2.08861992 46.1883662 -2.11522355 43.40141745 -2.09765625 40.58984375 C-2.0962413 39.74780899 -2.09482635 38.90577423 -2.09336853 38.03822327 C-2.08775263 35.33794665 -2.07519748 32.63775172 -2.0625 29.9375 C-2.05748705 28.11132932 -2.05292379 26.28515734 -2.04882812 24.45898438 C-2.03777804 19.97262458 -2.02050279 15.48632616 -2 11 C-1.34 11 -0.68 11 0 11 C0 7.37 0 3.74 0 0 Z " fill="#382FCF" transform="translate(461,566)"/>
<path d="M0 0 C1.32 0 2.64 0 4 0 C4 8.91 4 17.82 4 27 C2.68 27 1.36 27 0 27 C0 18.09 0 9.18 0 0 Z " fill="#F8F6FF" transform="translate(419,722)"/>
<path d="M0 0 C0.66 0 1.32 0 2 0 C1.93143799 0.53189941 1.86287598 1.06379883 1.79223633 1.61181641 C0.9250267 9.13177381 0.74649748 16.63368705 0.70483398 24.19433594 C0.69330567 25.64463043 0.67283993 27.09488221 0.64331055 28.54492188 C0.4499314 38.09504265 1.44793924 46.02020284 5 55 C5.35811852 56.32689111 5.70167119 57.65840065 6 59 C3.21731411 56.5989396 2.11807756 54.31059231 0.875 50.875 C0.54242188 49.98554688 0.20984375 49.09609375 -0.1328125 48.1796875 C-2.50970327 39.46442135 -2.15262206 30.46796075 -2.125 21.5 C-2.12886719 20.21351563 -2.13273437 18.92703125 -2.13671875 17.6015625 C-2.13542969 16.38210938 -2.13414062 15.16265625 -2.1328125 13.90625 C-2.13168457 12.79572266 -2.13055664 11.68519531 -2.12939453 10.54101562 C-2 8 -2 8 -1 7 C-0.63239269 4.67182036 -0.29758419 2.3381615 0 0 Z " fill="#3B32CE" transform="translate(481,460)"/>
<path d="M0 0 C0.79497894 0.00444122 1.58995789 0.00888245 2.4090271 0.01345825 C3.76020126 0.01368484 3.76020126 0.01368484 5.13867188 0.01391602 C6.11266937 0.02423859 7.08666687 0.03456116 8.09017944 0.04519653 C9.08617157 0.04802643 10.0821637 0.05085632 11.1083374 0.05377197 C14.29771813 0.06499063 17.48682072 0.09009822 20.67611694 0.11550903 C22.83496706 0.12553666 24.99382157 0.13466288 27.15267944 0.14285278 C32.45225393 0.16493543 37.75166557 0.19842945 43.05111694 0.24050903 C37.96769236 3.62945876 32.27504099 3.36734853 26.30502319 3.37332153 C24.43040405 3.37525513 24.43040405 3.37525513 22.51791382 3.37722778 C21.22949585 3.3733606 19.94107788 3.36949341 18.61361694 3.36550903 C16.68679077 3.37130981 16.68679077 3.37130981 14.72103882 3.37722778 C8.40526012 3.37072003 2.29215357 3.23465646 -3.94888306 2.24050903 C-1.94888306 0.24050903 -1.94888306 0.24050903 0 0 Z " fill="#463CDD" transform="translate(311.9488830566406,612.7594909667969)"/>
<path d="M0 0 C1.71086792 -0.0009668 1.71086792 -0.0009668 3.45629883 -0.00195312 C9.69400874 0.03830492 15.75308465 0.36945564 21.9375 1.1875 C21.9375 1.5175 21.9375 1.8475 21.9375 2.1875 C21.39070587 2.19780746 20.84391174 2.20811493 20.2805481 2.21873474 C14.60308615 2.32669328 8.92578636 2.44129974 3.24853516 2.55981445 C1.12812687 2.60319752 -0.99231712 2.64487007 -3.11279297 2.68481445 C-6.15603408 2.74243543 -9.1990949 2.80615325 -12.2421875 2.87109375 C-13.19431122 2.88780624 -14.14643494 2.90451874 -15.12741089 2.92173767 C-16.00817291 2.94168289 -16.88893494 2.96162811 -17.79638672 2.98217773 C-18.57360077 2.99772202 -19.35081482 3.0132663 -20.15158081 3.02928162 C-22.14806935 3.07533251 -22.14806935 3.07533251 -24.0625 4.1875 C-26.3954866 4.22772391 -28.72956666 4.23070247 -31.0625 4.1875 C-31.3925 3.5275 -31.7225 2.8675 -32.0625 2.1875 C-21.36033061 0.62064644 -10.81985598 -0.00590402 0 0 Z " fill="#554DD8" transform="translate(582.0625,474.8125)"/>
<path d="M0 0 C5.14105834 5.14105834 4.27961524 15.08207299 4.32226562 21.890625 C4.31904297 23.04046875 4.31582031 24.1903125 4.3125 25.375 C4.32861328 26.51710938 4.34472656 27.65921875 4.36132812 28.8359375 C4.36575739 36.63143866 3.24367271 43.53806918 1 51 C0.67 51 0.34 51 0 51 C-0.04241723 48.66705225 -0.04092937 46.33297433 0 44 C0.495 43.505 0.495 43.505 1 43 C1.10110622 40.5841337 1.1396984 38.19755042 1.1328125 35.78125 C1.13376923 35.04934448 1.13472595 34.31743896 1.13571167 33.56335449 C1.13639406 32.00642817 1.1345357 30.44949903 1.13037109 28.89257812 C1.12508462 26.53769289 1.13028195 24.18300378 1.13671875 21.828125 C1.13964822 14.49273588 1.05127942 7.27552106 0 0 Z " fill="#4940D4" transform="translate(903,491)"/>
<path d="M0 0 C-2 2 -2 2 -4.74612427 2.24050903 C-5.91416595 2.23606781 -7.08220764 2.23162659 -8.28564453 2.22705078 C-8.92967224 2.22734283 -9.57369995 2.22763489 -10.23724365 2.22793579 C-12.36923627 2.22654074 -14.50088082 2.21097174 -16.6328125 2.1953125 C-18.10968841 2.19158298 -19.58656678 2.18873572 -21.06344604 2.18673706 C-24.95317398 2.17909574 -28.84275288 2.15944308 -32.73242188 2.1373291 C-36.70050032 2.11688135 -40.66860282 2.10773764 -44.63671875 2.09765625 C-52.42454716 2.07619756 -60.21225271 2.04205572 -68 2 C-68 1.67 -68 1.34 -68 1 C-67.40690536 0.98969254 -66.81381073 0.97938507 -66.20274353 0.96876526 C-59.95563409 0.8594693 -53.70863393 0.74499328 -47.46166992 0.62768555 C-45.13910234 0.58472569 -42.816511 0.54302873 -40.49389648 0.50268555 C-23.05870567 0.21331854 -23.05870567 0.21331854 -5.66235352 -0.89868164 C-3 -1 -3 -1 0 0 Z " fill="#2F25CA" transform="translate(907,601)"/>
<path d="M0 0 C0.33 0 0.66 0 1 0 C1.0255149 6.51040808 1.04293568 13.02080309 1.05493164 19.53125 C1.0599367 21.74251792 1.06674276 23.95378258 1.07543945 26.16503906 C1.08767359 29.35743012 1.09326674 32.54977714 1.09765625 35.7421875 C1.10281754 36.71864227 1.10797882 37.69509705 1.11329651 38.70114136 C1.1137913 44.86036963 0.73490285 50.88464583 0 57 C-0.66 57 -1.32 57 -2 57 C-1.95875 58.093125 -1.9175 59.18625 -1.875 60.3125 C-2 64 -2 64 -4 67 C-4.66 66.67 -5.32 66.34 -6 66 C-5.72285156 64.99839844 -5.44570313 63.99679687 -5.16015625 62.96484375 C-4.79405048 61.62245591 -4.42817749 60.28000457 -4.0625 58.9375 C-3.78889648 57.95233398 -3.78889648 57.95233398 -3.50976562 56.94726562 C-3.33251953 56.29306641 -3.15527344 55.63886719 -2.97265625 54.96484375 C-2.72914429 54.07720337 -2.72914429 54.07720337 -2.48071289 53.17163086 C-1.04597673 46.6901793 -0.80276908 40.2968935 -0.68359375 33.69140625 C-0.66281265 32.72468491 -0.64203156 31.75796356 -0.62062073 30.76194763 C-0.55561009 27.69553242 -0.49646723 24.62903678 -0.4375 21.5625 C-0.3942686 19.4746013 -0.35065288 17.38671051 -0.30664062 15.29882812 C-0.19997885 10.19929967 -0.09857691 5.09969089 0 0 Z " fill="#655EDC" transform="translate(969,501)"/>
<path d="M0 0 C2.31 0 4.62 0 7 0 C7.02465746 4.1117256 7.04283959 8.22342278 7.05493164 12.33520508 C7.0599708 13.73495228 7.06680216 15.1346942 7.07543945 16.53442383 C7.0875232 18.54245777 7.09269807 20.55052957 7.09765625 22.55859375 C7.10289307 23.76829834 7.10812988 24.97800293 7.11352539 26.22436523 C7 29 7 29 6 30 C4.00041636 30.04080783 1.99954746 30.04254356 0 30 C0 29.34 0 28.68 0 28 C1.65 28 3.3 28 5 28 C5 19.09 5 10.18 5 1 C3.35 1 1.7 1 0 1 C0 0.67 0 0.34 0 0 Z " fill="#4137D4" transform="translate(418,721)"/>
<path d="M0 0 C3.96 0 7.92 0 12 0 C12 1.98 12 3.96 12 6 C8.04 6 4.08 6 0 6 C0 4.02 0 2.04 0 0 Z " fill="#2B1EF2" transform="translate(523,727)"/>
<path d="M0 0 C2.29141286 -0.05384521 4.58318188 -0.09272087 6.875 -0.125 C8.78925781 -0.15980469 8.78925781 -0.15980469 10.7421875 -0.1953125 C14 0 14 0 16 2 C16.1875 5.5625 16.1875 5.5625 16 9 C15 10 15 10 11.62109375 10.09765625 C10.22652923 10.09098369 8.83198257 10.07902532 7.4375 10.0625 C6.37112305 10.05573242 6.37112305 10.05573242 5.28320312 10.04882812 C3.52209987 10.03700864 1.76103964 10.01907263 0 10 C0 6.7 0 3.4 0 0 Z M2 2 C2 4.31 2 6.62 2 9 C5.96 9 9.92 9 14 9 C14 6.69 14 4.38 14 2 C10.04 2 6.08 2 2 2 Z " fill="#4840CA" transform="translate(301,725)"/>
<path d="M0 0 C0.5625 1.9375 0.5625 1.9375 1 4 C0 5 0 5 -3.37890625 5.09765625 C-4.77347077 5.09098369 -6.16801743 5.07902532 -7.5625 5.0625 C-8.27341797 5.05798828 -8.98433594 5.05347656 -9.71679688 5.04882812 C-11.47790013 5.03700864 -13.23896036 5.01907263 -15 5 C-14.67 6.32 -14.34 7.64 -14 9 C-9.05 9.33 -4.1 9.66 1 10 C1 10.33 1 10.66 1 11 C-4.94 11 -10.88 11 -17 11 C-17 8.36 -17 5.72 -17 3 C-11.39 3 -5.78 3 0 3 C0 2.01 0 1.02 0 0 Z " fill="#352BCB" transform="translate(359,734)"/>
<path d="M0 0 C0.66 0 1.32 0 2 0 C2.67119549 1.4562545 3.33681807 2.91507867 4 4.375 C4.556875 5.59316406 4.556875 5.59316406 5.125 6.8359375 C6 9 6 9 6 11 C2.7 11 -0.6 11 -4 11 C-1.125 2.25 -1.125 2.25 0 0 Z " fill="#342AD0" transform="translate(821,728)"/>
<path d="M0 0 C1.98 0 3.96 0 6 0 C6 1.98 6 3.96 6 6 C5.360625 6.268125 4.72125 6.53625 4.0625 6.8125 C1.66868314 7.88667752 1.66868314 7.88667752 1 11 C-4.61 11 -10.22 11 -16 11 C-16.66 9.68 -17.32 8.36 -18 7 C-17.01 7.495 -17.01 7.495 -16 8 C-13.36065948 8.15081946 -10.76527332 8.2313078 -8.125 8.25 C-7.40441406 8.270625 -6.68382812 8.29125 -5.94140625 8.3125 C-2.72640496 8.33618325 -0.40650718 8.22078665 2.4453125 6.671875 C4.23857967 4.97501947 4.23857967 4.97501947 5 2 C3.35 2 1.7 2 0 2 C0 1.34 0 0.68 0 0 Z " fill="#382ED8" transform="translate(891,740)"/>
<path d="M0 0 C3.58326501 -0.05814085 7.16640838 -0.09364357 10.75 -0.125 C11.76578125 -0.14175781 12.7815625 -0.15851562 13.828125 -0.17578125 C14.8078125 -0.18222656 15.7875 -0.18867187 16.796875 -0.1953125 C17.69760742 -0.20578613 18.59833984 -0.21625977 19.52636719 -0.22705078 C22.17627581 0.01618007 23.76840556 0.57060042 26 2 C28.21264666 6.42529333 27.29045294 11.96526141 26 16.5625 C25.67 17.366875 25.34 18.17125 25 19 C24.01 18.34 23.02 17.68 22 17 C22.33 16.01 22.66 15.02 23 14 C23.66 14 24.32 14 25 14 C25 10.7 25 7.4 25 4 C21.31111465 2.15555733 19.91931805 1.72875554 16.015625 1.5859375 C14.61376953 1.52792969 14.61376953 1.52792969 13.18359375 1.46875 C12.21550781 1.4378125 11.24742187 1.406875 10.25 1.375 C8.77466797 1.31699219 8.77466797 1.31699219 7.26953125 1.2578125 C4.84653963 1.16371574 2.42355204 1.07807672 0 1 C0 0.67 0 0.34 0 0 Z " fill="#3227D1" transform="translate(376,721)"/>
<path d="M0 0 C0.66 0 1.32 0 2 0 C1.90150757 0.87180908 1.90150757 0.87180908 1.80102539 1.76123047 C1.07410683 8.54446865 0.70196576 15.30958736 0.4375 22.125 C0.39431641 23.176875 0.35113281 24.22875 0.30664062 25.3125 C0.20181491 27.87490627 0.09964645 30.43738799 0 33 C-0.33 33 -0.66 33 -1 33 C-1.19583915 28.85451585 -1.38027842 24.7086033 -1.5625 20.5625 C-1.61857422 19.37849609 -1.67464844 18.19449219 -1.73242188 16.97460938 C-1.78076172 15.84990234 -1.82910156 14.72519531 -1.87890625 13.56640625 C-1.9260376 12.52427979 -1.97316895 11.48215332 -2.02172852 10.40844727 C-2 8 -2 8 -1 7 C-0.63239269 4.67182036 -0.29758419 2.3381615 0 0 Z " fill="#574FDB" transform="translate(481,460)"/>
<path d="M0 0 C1.99954746 -0.04254356 4.00041636 -0.04080783 6 0 C7 1 7 1 7.0625 3.5625 C7.041875 4.366875 7.02125 5.17125 7 6 C4.69 6.33 2.38 6.66 0 7 C0 4.69 0 2.38 0 0 Z " fill="#3E34D9" transform="translate(850,743)"/>
<path d="M0 0 C3.3 0 6.6 0 10 0 C10 1.32 10 2.64 10 4 C6.04 4 2.08 4 -2 4 C-1.34 2.68 -0.68 1.36 0 0 Z " fill="#2C1FF1" transform="translate(673,727)"/>
<path d="M0 0 C0.66 0 1.32 0 2 0 C2.02505615 0.56509277 2.0501123 1.13018555 2.07592773 1.71240234 C2.19179956 4.26683742 2.31456537 6.8208955 2.4375 9.375 C2.47681641 10.26445313 2.51613281 11.15390625 2.55664062 12.0703125 C2.59853516 12.92109375 2.64042969 13.771875 2.68359375 14.6484375 C2.72025146 15.43395996 2.75690918 16.21948242 2.79467773 17.02880859 C2.890891 19.07523496 2.890891 19.07523496 4 21 C2.68 20.67 1.36 20.34 0 20 C0 13.4 0 6.8 0 0 Z " fill="#453CD3" transform="translate(579,726)"/>
<path d="M0 0 C1.98 0.99 1.98 0.99 4 2 C4 4.64 4 7.28 4 10 C5.32 10 6.64 10 8 10 C8 7.03 8 4.06 8 1 C8.33 1 8.66 1 9 1 C9.19406478 2.64507218 9.38007935 4.29109594 9.5625 5.9375 C9.66691406 6.85402344 9.77132813 7.77054688 9.87890625 8.71484375 C9.91886719 9.46894531 9.95882813 10.22304688 10 11 C9 12 9 12 5.9375 12.0625 C4.968125 12.041875 3.99875 12.02125 3 12 C1.8422494 8.52674819 1.93133348 5.63932552 2 2 C1.34 2 0.68 2 0 2 C0 1.34 0 0.68 0 0 Z " fill="#4E45DB" transform="translate(393,739)"/>
<path d="M0 0 C-2 2 -2 2 -4.15478516 2.22705078 C-5.02409668 2.21657715 -5.8934082 2.20610352 -6.7890625 2.1953125 C-7.73007812 2.18886719 -8.67109375 2.18242188 -9.640625 2.17578125 C-10.62546875 2.15902344 -11.6103125 2.14226563 -12.625 2.125 C-13.61757813 2.11597656 -14.61015625 2.10695313 -15.6328125 2.09765625 C-18.08878134 2.07404116 -20.54427168 2.04110799 -23 2 C-23 1.67 -23 1.34 -23 1 C-18.80254934 0.04382398 -14.66678997 -0.32872259 -10.375 -0.625 C-9.06273437 -0.72039063 -7.75046875 -0.81578125 -6.3984375 -0.9140625 C-3 -1 -3 -1 0 0 Z " fill="#392FD2" transform="translate(907,601)"/>
<path d="M0 0 C7.81590501 0.30235609 14.91499258 1.53592811 22 5 C22.33 5.66 22.66 6.32 23 7 C22.43152344 6.79503906 21.86304688 6.59007812 21.27734375 6.37890625 C15.61205865 4.4022041 10.26027019 2.8550991 4.1875 3.125 C3.465625 3.08375 2.74375 3.0425 2 3 C1.34 2.01 0.68 1.02 0 0 Z " fill="#4238D5" transform="translate(877,480)"/>
<path d="M0 0 C0.66 0.66 1.32 1.32 2 2 C1 3 1 3 -2.59765625 3.09765625 C-4.08596867 3.0909822 -5.57426432 3.07902183 -7.0625 3.0625 C-7.82111328 3.05798828 -8.57972656 3.05347656 -9.36132812 3.04882812 C-11.24091871 3.0370068 -13.12046899 3.01907078 -15 3 C-15.33 2.34 -15.66 1.68 -16 1 C-13.37549914 0.77880061 -10.75129514 0.57253331 -8.125 0.375 C-7.37863281 0.31054688 -6.63226562 0.24609375 -5.86328125 0.1796875 C-3.9129953 0.03912635 -1.95530533 0.01240151 0 0 Z " fill="#3025D2" transform="translate(685,748)"/>
<path d="M0 0 C6.70518586 -0.19818283 12.65176798 -0.30844801 19 2 C19 2.66 19 3.32 19 4 C16.58197805 3.71729594 14.1659878 3.42420736 11.75 3.125 C11.06808594 3.04636719 10.38617187 2.96773438 9.68359375 2.88671875 C6.09303689 2.43354167 3.107493 1.90614262 0 0 Z " fill="#3D33D3" transform="translate(911,433)"/>
<path d="M0 0 C0.99 0.33 1.98 0.66 3 1 C3 5.29 3 9.58 3 14 C0.81005752 10.71508627 0.64722661 9.16904361 0.375 5.3125 C0.30023438 4.31863281 0.22546875 3.32476563 0.1484375 2.30078125 C0.09945313 1.54152344 0.05046875 0.78226563 0 0 Z " fill="#4238DB" transform="translate(292,590)"/>
<path d="M0 0 C4.62 0 9.24 0 14 0 C13.67 0.66 13.34 1.32 13 2 C12.32453125 1.94199219 11.6490625 1.88398437 10.953125 1.82421875 C8.22489502 1.68623024 5.71011266 1.63893483 3 2 C0.32181017 4.29857106 0.32181017 4.29857106 -1 7 C-1.66 6.67 -2.32 6.34 -3 6 C-2.01 4.02 -1.02 2.04 0 0 Z " fill="#3228CC" transform="translate(815,742)"/>
<path d="M0 0 C1.65 0 3.3 0 5 0 C3.8125 2.4375 3.8125 2.4375 2 5 C-0.6875 5.8125 -0.6875 5.8125 -3 6 C-2.01 4.02 -1.02 2.04 0 0 Z " fill="#EEEBFE" transform="translate(491,714)"/>
<path d="M0 0 C6.13602988 1.41600689 10.26698362 5.0663375 15 9 C14.34 9.66 13.68 10.32 13 11 C12.48050781 10.52949219 11.96101562 10.05898438 11.42578125 9.57421875 C7.76822319 6.30878337 4.2921774 3.41434979 0 1 C0 0.67 0 0.34 0 0 Z " fill="#443BD5" transform="translate(658,437)"/>
<path d="M0 0 C3.96 0 7.92 0 12 0 C8.83759418 2.10827055 7.49342531 2.33817465 3.8125 2.625 C2.46091797 2.73714844 2.46091797 2.73714844 1.08203125 2.8515625 C0.05142578 2.92503906 0.05142578 2.92503906 -1 3 C-0.67 2.01 -0.34 1.02 0 0 Z " fill="#3A30D6" transform="translate(619,617)"/>
<path d="M0 0 C0 0.33 0 0.66 0 1 C-5.61 1.66 -11.22 2.32 -17 3 C-17.33 2.34 -17.66 1.68 -18 1 C-11.76647981 -1.3548854 -6.54311329 -0.87557031 0 0 Z " fill="#463DD4" transform="translate(533,432)"/>
<path d="M0 0 C0.556875 0.9590625 0.556875 0.9590625 1.125 1.9375 C3.58052793 4.63858072 5.44578805 4.68407005 9 5 C8.67 5.66 8.34 6.32 8 7 C5.125 7.1875 5.125 7.1875 2 7 C0 4 0 4 0 0 Z " fill="#3429D8" transform="translate(829,744)"/>
<path d="M0 0 C0.33 0 0.66 0 1 0 C1.99 4.29 2.98 8.58 4 13 C3.01 13.495 3.01 13.495 2 14 C-0.3992233 9.35150485 -0.19957409 5.08913926 0 0 Z " fill="#433AD5" transform="translate(233,621)"/>
<path d="M0 0 C0.33 0 0.66 0 1 0 C1.042721 1.66611905 1.04063832 3.33382885 1 5 C0.67 5.33 0.34 5.66 0 6 C-0.23287008 7.68183948 -0.41264166 9.3712416 -0.5625 11.0625 C-0.64628906 11.98160156 -0.73007812 12.90070313 -0.81640625 13.84765625 C-0.87699219 14.55792969 -0.93757812 15.26820313 -1 16 C-1.33 16 -1.66 16 -2 16 C-2.05423638 14.08364783 -2.09289963 12.16685075 -2.125 10.25 C-2.14820313 9.18265625 -2.17140625 8.1153125 -2.1953125 7.015625 C-2.00487687 4.07529894 -1.52670104 2.47638122 0 0 Z " fill="#3127D0" transform="translate(544,481)"/>
<path d="M0 0 C1.98 0.495 1.98 0.495 4 1 C3.67 2.32 3.34 3.64 3 5 C1.68 4.67 0.36 4.34 -1 4 C-0.67 2.68 -0.34 1.36 0 0 Z " fill="#EAE6FF" transform="translate(851,744)"/>
<path d="M0 0 C1.98 0.495 1.98 0.495 4 1 C3.67 2.32 3.34 3.64 3 5 C1.68 4.67 0.36 4.34 -1 4 C-0.67 2.68 -0.34 1.36 0 0 Z " fill="#EAE6FF" transform="translate(790,744)"/>
<path d="M0 0 C0.33 0 0.66 0 1 0 C1.05437607 1.58294782 1.09296271 3.16644256 1.125 4.75 C1.14820313 5.63171875 1.17140625 6.5134375 1.1953125 7.421875 C0.99139502 10.1135858 0.36551721 11.69904974 -1 14 C-1.66 12.68 -2.32 11.36 -3 10 C-2.01 9.67 -1.02 9.34 0 9 C0 6.03 0 3.06 0 0 Z " fill="#5048D2" transform="translate(401,726)"/>
<path d="M0 0 C0.99 0.33 1.98 0.66 3 1 C2.67 2.65 2.34 4.3 2 6 C0.02 6 -1.96 6 -4 6 C-4 5.34 -4 4.68 -4 4 C-2.35 4 -0.7 4 1 4 C0.67 2.68 0.34 1.36 0 0 Z " fill="#3A30D7" transform="translate(606,725)"/>
<path d="M0 0 C-0.33 0.99 -0.66 1.98 -1 3 C-5.29 2.67 -9.58 2.34 -14 2 C-14 1.67 -14 1.34 -14 1 C-12.04175306 0.83232136 -10.08339945 0.66588795 -8.125 0.5 C-6.48917969 0.36078125 -6.48917969 0.36078125 -4.8203125 0.21875 C-3.21670436 0.09437042 -1.60842449 0 0 0 Z " fill="#3D33D0" transform="translate(374,664)"/>
<path d="M0 0 C-2 2 -2 2 -5.625 2.125 C-6.73875 2.08375 -7.8525 2.0425 -9 2 C-9.33 1.34 -9.66 0.68 -10 0 C-6.30458414 -0.95024979 -3.69541586 -0.95024979 0 0 Z " fill="#463CDD" transform="translate(560,477)"/>
<path d="M0 0 C0.33 0 0.66 0 1 0 C1.25 5.625 1.25 5.625 -1 9 C-1.66 8.67 -2.32 8.34 -3 8 C-2.01 5.36 -1.02 2.72 0 0 Z " fill="#4339D6" transform="translate(966,559)"/>
</svg>
